<mxfile host="app.diagrams.net" agent="Mozilla/5.0 (Windows NT 10.0; Win64; x64) AppleWebKit/537.36 (KHTML, like Gecko) Chrome/129.0.0.0 Safari/537.36 Edg/129.0.0.0" version="24.7.6">
  <diagram name="第 1 页" id="gpNWI9stZjSqqFV6-BVp">
    <mxGraphModel dx="1556" dy="1006" grid="0" gridSize="10" guides="1" tooltips="1" connect="1" arrows="1" fold="1" page="1" pageScale="1" pageWidth="827" pageHeight="1169" math="0" shadow="0">
      <root>
        <mxCell id="0" />
        <mxCell id="1" parent="0" />
        <mxCell id="mc5h5STAeLzcDdeN3o6b-10" style="edgeStyle=orthogonalEdgeStyle;rounded=0;orthogonalLoop=1;jettySize=auto;html=1;exitX=1;exitY=0.5;exitDx=0;exitDy=0;entryX=0;entryY=0.5;entryDx=0;entryDy=0;fontSize=17;" edge="1" parent="1" source="mc5h5STAeLzcDdeN3o6b-1" target="mc5h5STAeLzcDdeN3o6b-8">
          <mxGeometry relative="1" as="geometry" />
        </mxCell>
        <mxCell id="mc5h5STAeLzcDdeN3o6b-11" style="rounded=0;orthogonalLoop=1;jettySize=auto;html=1;exitX=1;exitY=1;exitDx=0;exitDy=0;entryX=0;entryY=0.5;entryDx=0;entryDy=0;fontSize=17;" edge="1" parent="1" source="mc5h5STAeLzcDdeN3o6b-1" target="mc5h5STAeLzcDdeN3o6b-7">
          <mxGeometry relative="1" as="geometry" />
        </mxCell>
        <mxCell id="mc5h5STAeLzcDdeN3o6b-1" value="p1" style="ellipse;whiteSpace=wrap;html=1;aspect=fixed;fontSize=17;" vertex="1" parent="1">
          <mxGeometry x="151" y="258" width="33" height="33" as="geometry" />
        </mxCell>
        <mxCell id="mc5h5STAeLzcDdeN3o6b-2" value="p8" style="ellipse;whiteSpace=wrap;html=1;aspect=fixed;fontSize=17;" vertex="1" parent="1">
          <mxGeometry x="637" y="462" width="33" height="33" as="geometry" />
        </mxCell>
        <mxCell id="mc5h5STAeLzcDdeN3o6b-21" style="edgeStyle=orthogonalEdgeStyle;rounded=0;orthogonalLoop=1;jettySize=auto;html=1;exitX=1;exitY=0.5;exitDx=0;exitDy=0;fontSize=17;" edge="1" parent="1" source="mc5h5STAeLzcDdeN3o6b-3" target="mc5h5STAeLzcDdeN3o6b-2">
          <mxGeometry relative="1" as="geometry" />
        </mxCell>
        <mxCell id="mc5h5STAeLzcDdeN3o6b-3" value="p6" style="ellipse;whiteSpace=wrap;html=1;aspect=fixed;fontSize=17;" vertex="1" parent="1">
          <mxGeometry x="483" y="462" width="33" height="33" as="geometry" />
        </mxCell>
        <mxCell id="mc5h5STAeLzcDdeN3o6b-18" style="edgeStyle=orthogonalEdgeStyle;rounded=0;orthogonalLoop=1;jettySize=auto;html=1;exitX=1;exitY=0.5;exitDx=0;exitDy=0;entryX=0;entryY=0.5;entryDx=0;entryDy=0;fontSize=17;" edge="1" parent="1" source="mc5h5STAeLzcDdeN3o6b-4" target="mc5h5STAeLzcDdeN3o6b-3">
          <mxGeometry relative="1" as="geometry" />
        </mxCell>
        <mxCell id="mc5h5STAeLzcDdeN3o6b-4" value="p4" style="ellipse;whiteSpace=wrap;html=1;aspect=fixed;fontSize=17;" vertex="1" parent="1">
          <mxGeometry x="329" y="462" width="33" height="33" as="geometry" />
        </mxCell>
        <mxCell id="mc5h5STAeLzcDdeN3o6b-22" style="edgeStyle=orthogonalEdgeStyle;rounded=0;orthogonalLoop=1;jettySize=auto;html=1;exitX=0.5;exitY=1;exitDx=0;exitDy=0;entryX=0.5;entryY=0;entryDx=0;entryDy=0;fontSize=17;" edge="1" parent="1" source="mc5h5STAeLzcDdeN3o6b-5" target="mc5h5STAeLzcDdeN3o6b-2">
          <mxGeometry relative="1" as="geometry" />
        </mxCell>
        <mxCell id="mc5h5STAeLzcDdeN3o6b-5" value="p7" style="ellipse;whiteSpace=wrap;html=1;aspect=fixed;fontSize=17;" vertex="1" parent="1">
          <mxGeometry x="637" y="360" width="33" height="33" as="geometry" />
        </mxCell>
        <mxCell id="mc5h5STAeLzcDdeN3o6b-16" style="edgeStyle=orthogonalEdgeStyle;rounded=0;orthogonalLoop=1;jettySize=auto;html=1;exitX=1;exitY=0.5;exitDx=0;exitDy=0;fontSize=17;" edge="1" parent="1" source="mc5h5STAeLzcDdeN3o6b-6" target="mc5h5STAeLzcDdeN3o6b-5">
          <mxGeometry relative="1" as="geometry" />
        </mxCell>
        <mxCell id="mc5h5STAeLzcDdeN3o6b-19" style="rounded=0;orthogonalLoop=1;jettySize=auto;html=1;exitX=1;exitY=1;exitDx=0;exitDy=0;entryX=0;entryY=0;entryDx=0;entryDy=0;fontSize=17;" edge="1" parent="1" source="mc5h5STAeLzcDdeN3o6b-6" target="mc5h5STAeLzcDdeN3o6b-2">
          <mxGeometry relative="1" as="geometry" />
        </mxCell>
        <mxCell id="mc5h5STAeLzcDdeN3o6b-20" style="edgeStyle=orthogonalEdgeStyle;rounded=0;orthogonalLoop=1;jettySize=auto;html=1;exitX=0.5;exitY=1;exitDx=0;exitDy=0;entryX=0.5;entryY=0;entryDx=0;entryDy=0;fontSize=17;" edge="1" parent="1" source="mc5h5STAeLzcDdeN3o6b-6" target="mc5h5STAeLzcDdeN3o6b-3">
          <mxGeometry relative="1" as="geometry" />
        </mxCell>
        <mxCell id="mc5h5STAeLzcDdeN3o6b-6" value="p5" style="ellipse;whiteSpace=wrap;html=1;aspect=fixed;fontSize=17;" vertex="1" parent="1">
          <mxGeometry x="483" y="360" width="33" height="33" as="geometry" />
        </mxCell>
        <mxCell id="mc5h5STAeLzcDdeN3o6b-14" style="edgeStyle=orthogonalEdgeStyle;rounded=0;orthogonalLoop=1;jettySize=auto;html=1;exitX=1;exitY=0.5;exitDx=0;exitDy=0;entryX=0;entryY=0.5;entryDx=0;entryDy=0;fontSize=17;" edge="1" parent="1" source="mc5h5STAeLzcDdeN3o6b-7" target="mc5h5STAeLzcDdeN3o6b-6">
          <mxGeometry relative="1" as="geometry" />
        </mxCell>
        <mxCell id="mc5h5STAeLzcDdeN3o6b-17" style="edgeStyle=orthogonalEdgeStyle;rounded=0;orthogonalLoop=1;jettySize=auto;html=1;exitX=0.5;exitY=1;exitDx=0;exitDy=0;entryX=0.5;entryY=0;entryDx=0;entryDy=0;fontSize=17;" edge="1" parent="1" source="mc5h5STAeLzcDdeN3o6b-7" target="mc5h5STAeLzcDdeN3o6b-4">
          <mxGeometry relative="1" as="geometry" />
        </mxCell>
        <mxCell id="mc5h5STAeLzcDdeN3o6b-7" value="p3" style="ellipse;whiteSpace=wrap;html=1;aspect=fixed;fontSize=17;" vertex="1" parent="1">
          <mxGeometry x="329" y="360" width="33" height="33" as="geometry" />
        </mxCell>
        <mxCell id="mc5h5STAeLzcDdeN3o6b-13" style="rounded=0;orthogonalLoop=1;jettySize=auto;html=1;exitX=1;exitY=0.5;exitDx=0;exitDy=0;entryX=0;entryY=0;entryDx=0;entryDy=0;fontSize=17;" edge="1" parent="1" source="mc5h5STAeLzcDdeN3o6b-8" target="mc5h5STAeLzcDdeN3o6b-6">
          <mxGeometry relative="1" as="geometry" />
        </mxCell>
        <mxCell id="mc5h5STAeLzcDdeN3o6b-15" style="edgeStyle=orthogonalEdgeStyle;rounded=0;orthogonalLoop=1;jettySize=auto;html=1;exitX=0.5;exitY=1;exitDx=0;exitDy=0;entryX=0.5;entryY=0;entryDx=0;entryDy=0;fontSize=17;" edge="1" parent="1" source="mc5h5STAeLzcDdeN3o6b-8" target="mc5h5STAeLzcDdeN3o6b-7">
          <mxGeometry relative="1" as="geometry" />
        </mxCell>
        <mxCell id="mc5h5STAeLzcDdeN3o6b-8" value="p2" style="ellipse;whiteSpace=wrap;html=1;aspect=fixed;fontSize=17;" vertex="1" parent="1">
          <mxGeometry x="329" y="258" width="33" height="33" as="geometry" />
        </mxCell>
      </root>
    </mxGraphModel>
  </diagram>
</mxfile>
